<svg xmlns="http://www.w3.org/2000/svg" width="1200" height="280" viewBox="0 0 1200 280" role="img" aria-labelledby="title desc"><title id="title">COMPAS Forge</title><desc id="desc">Mesh inspection • geometric queries • fabrication preflight. Four-stage implementation workflow.</desc><rect width="1200" height="280" rx="16" fill="#0c1722"/><path d="M40 32h72" stroke="#62dbc8" stroke-width="4"/><text x="40" y="96" fill="#f2f6fa" font-family="Segoe UI,Arial,sans-serif" font-size="44" font-weight="650">COMPAS Forge</text><text x="42" y="133" fill="#b4c6d5" font-family="Segoe UI,Arial,sans-serif" font-size="18">Mesh inspection • geometric queries • fabrication preflight</text><g font-family="Segoe UI,Arial,sans-serif"><rect x="40" y="182" width="266" height="66" rx="10" fill="#152635" stroke="#62dbc8" stroke-opacity=".45"/><text x="55" y="206" fill="#62dbc8" font-size="12">01</text><text x="55" y="231" fill="#eaf2f8" font-size="13">COMPAS mesh / JSON</text><path d="M310 215 h12 m-4 -4 4 4 -4 4" fill="none" stroke="#62dbc8"/><rect x="326" y="182" width="266" height="66" rx="10" fill="#152635" stroke="#62dbc8" stroke-opacity=".45"/><text x="341" y="206" fill="#62dbc8" font-size="12">02</text><text x="341" y="231" fill="#eaf2f8" font-size="13">Validated Rust snapshot</text><path d="M596 215 h12 m-4 -4 4 4 -4 4" fill="none" stroke="#62dbc8"/><rect x="612" y="182" width="266" height="66" rx="10" fill="#152635" stroke="#62dbc8" stroke-opacity=".45"/><text x="627" y="206" fill="#62dbc8" font-size="12">03</text><text x="627" y="231" fill="#eaf2f8" font-size="13">Topology + Parry queries</text><path d="M882 215 h12 m-4 -4 4 4 -4 4" fill="none" stroke="#62dbc8"/><rect x="898" y="182" width="266" height="66" rx="10" fill="#152635" stroke="#62dbc8" stroke-opacity=".45"/><text x="913" y="206" fill="#62dbc8" font-size="12">04</text><text x="913" y="231" fill="#eaf2f8" font-size="13">Python / CLI / HTML</text></g></svg>